<?xml version="1.0" encoding="UTF-8" standalone="no"?>
<!-- Created with Inkscape (http://www.inkscape.org/) -->

<svg
   width="1280"
   height="720"
   viewBox="0 0 338.66667 190.5"
   version="1.1"
   id="svg1"
   inkscape:version="1.3.2 (1:1.3.2+202311252150+091e20ef0f)"
   sodipodi:docname="Design-layout.svg"
   xml:space="preserve"
   xmlns:inkscape="http://www.inkscape.org/namespaces/inkscape"
   xmlns:sodipodi="http://sodipodi.sourceforge.net/DTD/sodipodi-0.dtd"
   xmlns="http://www.w3.org/2000/svg"
   xmlns:svg="http://www.w3.org/2000/svg"><sodipodi:namedview
     id="namedview1"
     pagecolor="#ffffff"
     bordercolor="#999999"
     borderopacity="1"
     inkscape:showpageshadow="2"
     inkscape:pageopacity="0"
     inkscape:pagecheckerboard="0"
     inkscape:deskcolor="#d1d1d1"
     inkscape:document-units="mm"
     inkscape:zoom="0.32882251"
     inkscape:cx="510.91393"
     inkscape:cy="18.246926"
     inkscape:window-width="1360"
     inkscape:window-height="768"
     inkscape:window-x="0"
     inkscape:window-y="0"
     inkscape:window-maximized="1"
     inkscape:current-layer="layer1" /><defs
     id="defs1"><inkscape:path-effect
       effect="fillet_chamfer"
       id="path-effect5"
       is_visible="true"
       lpeversion="1"
       nodesatellites_param="F,0,0,1,0,0,0,1 @ F,0,0,1,0,8.3650213,0,1 @ F,0,0,1,0,0,0,1"
       radius="0"
       unit="px"
       method="auto"
       mode="F"
       chamfer_steps="1"
       flexible="false"
       use_knot_distance="true"
       apply_no_radius="true"
       apply_with_radius="true"
       only_selected="false"
       hide_knots="false" /><inkscape:path-effect
       effect="fillet_chamfer"
       id="path-effect4"
       is_visible="true"
       lpeversion="1"
       nodesatellites_param="F,0,0,1,0,0,0,1 @ F,0,0,1,0,13.71712,0,1 @ F,0,0,1,0,0,0,1"
       radius="0"
       unit="px"
       method="auto"
       mode="F"
       chamfer_steps="1"
       flexible="false"
       use_knot_distance="true"
       apply_no_radius="true"
       apply_with_radius="true"
       only_selected="false"
       hide_knots="false" /><inkscape:path-effect
       effect="fillet_chamfer"
       id="path-effect5-7"
       is_visible="true"
       lpeversion="1"
       nodesatellites_param="F,0,0,1,0,0,0,1 @ F,0,0,1,0,8.3650213,0,1 @ F,0,0,1,0,0,0,1 @ F,0,0,1,0,0,0,1"
       radius="0"
       unit="px"
       method="auto"
       mode="F"
       chamfer_steps="1"
       flexible="false"
       use_knot_distance="true"
       apply_no_radius="true"
       apply_with_radius="true"
       only_selected="false"
       hide_knots="false" /><inkscape:path-effect
       effect="fillet_chamfer"
       id="path-effect5-7-2"
       is_visible="true"
       lpeversion="1"
       nodesatellites_param="F,0,0,1,0,0,0,1 @ F,0,0,1,0,8.3650213,0,1 @ F,0,0,1,0,0,0,1 @ F,0,0,1,0,0,0,1"
       radius="0"
       unit="px"
       method="auto"
       mode="F"
       chamfer_steps="1"
       flexible="false"
       use_knot_distance="true"
       apply_no_radius="true"
       apply_with_radius="true"
       only_selected="false"
       hide_knots="false" /><inkscape:path-effect
       effect="fillet_chamfer"
       id="path-effect5-7-2-0"
       is_visible="true"
       lpeversion="1"
       nodesatellites_param="F,0,0,1,0,0,0,1 @ F,0,0,1,0,8.3650213,0,1 @ F,0,0,1,0,0,0,1 @ F,0,0,1,0,0,0,1"
       radius="0"
       unit="px"
       method="auto"
       mode="F"
       chamfer_steps="1"
       flexible="false"
       use_knot_distance="true"
       apply_no_radius="true"
       apply_with_radius="true"
       only_selected="false"
       hide_knots="false" /><inkscape:path-effect
       effect="fillet_chamfer"
       id="path-effect5-7-2-0-6"
       is_visible="true"
       lpeversion="1"
       nodesatellites_param="F,0,0,1,0,0,0,1 @ F,0,0,1,0,8.3650213,0,1 @ F,0,0,1,0,0,0,1 @ F,0,0,1,0,0,0,1"
       radius="0"
       unit="px"
       method="auto"
       mode="F"
       chamfer_steps="1"
       flexible="false"
       use_knot_distance="true"
       apply_no_radius="true"
       apply_with_radius="true"
       only_selected="false"
       hide_knots="false" /><inkscape:path-effect
       effect="fillet_chamfer"
       id="path-effect5-7-2-0-6-9"
       is_visible="true"
       lpeversion="1"
       nodesatellites_param="F,0,0,1,0,0,0,1 @ F,0,0,1,0,8.3650213,0,1 @ F,0,0,1,0,0,0,1 @ F,0,0,1,0,0,0,1"
       radius="0"
       unit="px"
       method="auto"
       mode="F"
       chamfer_steps="1"
       flexible="false"
       use_knot_distance="true"
       apply_no_radius="true"
       apply_with_radius="true"
       only_selected="false"
       hide_knots="false" /><filter
       inkscape:collect="always"
       style="color-interpolation-filters:sRGB"
       id="filter9"
       x="-0.079728273"
       y="-0.13353939"
       width="1.1594565"
       height="1.2670788"><feGaussianBlur
         inkscape:collect="always"
         stdDeviation="0.71933649"
         id="feGaussianBlur9" /></filter></defs><g
     inkscape:label="Layer 1"
     inkscape:groupmode="layer"
     id="layer1"><rect
       style="fill:#ffffff;fill-opacity:1;stroke:none;stroke-width:3.8;stroke-linecap:round;stroke-linejoin:round;stroke-dasharray:none;stroke-opacity:1;paint-order:stroke fill markers"
       id="rect9"
       width="338.66666"
       height="190.5"
       x="0"
       y="0" /><rect
       style="fill:none;stroke:#7e7e7e;stroke-width:1;stroke-linecap:round;stroke-linejoin:round;stroke-dasharray:none;stroke-opacity:1;paint-order:stroke fill markers"
       id="rect1"
       width="338.66663"
       height="154.83661"
       x="0"
       y="35.663391" /><rect
       style="fill:none;stroke:#7e7e7e;stroke-width:1;stroke-linecap:round;stroke-linejoin:round;stroke-dasharray:none;stroke-opacity:1;paint-order:stroke fill markers"
       id="rect1-61"
       width="338.66663"
       height="35.663391"
       x="0"
       y="0" /><rect
       style="fill:none;stroke:#000000;stroke-width:1;stroke-linecap:round;stroke-linejoin:round;stroke-dasharray:none;stroke-opacity:1;paint-order:stroke fill markers"
       id="rect1-61-2"
       width="333.37497"
       height="30.371725"
       x="2.6458282"
       y="2.645833"
       ry="8.0724621" /><rect
       style="fill:none;stroke:#000000;stroke-width:1;stroke-linecap:round;stroke-linejoin:round;stroke-dasharray:none;stroke-opacity:1;paint-order:stroke fill markers"
       id="rect1-6"
       width="333.375"
       height="149.54494"
       x="2.645813"
       y="38.309227"
       ry="7.663393" /><path
       style="fill:#f54e47;fill-opacity:1;stroke:#000000;stroke-width:1;stroke-linecap:round;stroke-linejoin:round;stroke-opacity:1;paint-order:stroke fill markers"
       d="m 10.959351,19.272879 h 18.902721 a 8.3650213,8.3650213 135 0 0 8.365021,-8.365021 V 2.645833 H 10.959352"
       id="path4-3"
       inkscape:path-effect="#path-effect5-7"
       inkscape:original-d="M 10.959351,19.272879 H 38.227093 V 2.645833 l -27.267741,0"
       sodipodi:nodetypes="cccc" /><path
       style="fill:#f54e47;fill-opacity:1;stroke:#000000;stroke-width:1;stroke-linecap:round;stroke-linejoin:round;stroke-opacity:1;paint-order:stroke fill markers"
       d="m 10.959351,19.272879 h 18.902721 a 8.3650213,8.3650213 135 0 0 8.365021,-8.365021 V 2.645833 H 10.959352"
       id="path4-3-1-3-6-7"
       inkscape:path-effect="#path-effect5-7-2-0-6-9"
       inkscape:original-d="M 10.959351,19.272879 H 38.227093 V 2.645833 H 10.959352"
       sodipodi:nodetypes="cccc"
       transform="translate(64.928853)" /><path
       style="fill:#f54e47;fill-opacity:1;stroke:#000000;stroke-width:1;stroke-linecap:round;stroke-linejoin:round;stroke-opacity:1;paint-order:stroke fill markers"
       d="m 10.959351,19.272879 h 18.902721 a 8.3650213,8.3650213 135 0 0 8.365021,-8.365021 V 2.645833 H 10.959352"
       id="path4-3-1-3-6"
       inkscape:path-effect="#path-effect5-7-2-0-6"
       inkscape:original-d="M 10.959351,19.272879 H 38.227093 V 2.645833 H 10.959352"
       sodipodi:nodetypes="cccc"
       transform="translate(42.942237)" /><path
       style="fill:#f54e47;fill-opacity:1;stroke:#000000;stroke-width:1;stroke-linecap:round;stroke-linejoin:round;stroke-opacity:1;paint-order:stroke fill markers"
       d="m 10.959351,19.272879 h 18.902721 a 8.3650213,8.3650213 135 0 0 8.365021,-8.365021 V 2.645833 H 10.959352"
       id="path4-3-1-3"
       inkscape:path-effect="#path-effect5-7-2-0"
       inkscape:original-d="M 10.959351,19.272879 H 38.227093 V 2.645833 H 10.959352"
       sodipodi:nodetypes="cccc"
       transform="translate(20.261963)" /><path
       style="fill:#f54e47;fill-opacity:1;stroke:#000000;stroke-width:1;stroke-linecap:round;stroke-linejoin:round;stroke-opacity:1;paint-order:stroke fill markers"
       d="m 10.959351,19.272879 h 18.902721 a 8.3650213,8.3650213 135 0 0 8.365021,-8.365021 V 2.645833 H 10.959352"
       id="path4-3-1"
       inkscape:path-effect="#path-effect5-7-2"
       inkscape:original-d="M 10.959351,19.272879 H 38.227093 V 2.645833 H 10.959352"
       sodipodi:nodetypes="cccc" /><text
       xml:space="preserve"
       style="font-size:7.76111px;line-height:1;font-family:'CaskaydiaCove Nerd Font';-inkscape-font-specification:'CaskaydiaCove Nerd Font';text-align:center;letter-spacing:0px;text-anchor:middle;fill:#000000;fill-opacity:1;stroke:#ffffff;stroke-width:1;stroke-linecap:round;stroke-linejoin:round;stroke-opacity:1;paint-order:stroke fill markers"
       x="160.04778"
       y="9.4946842"
       id="text1"><tspan
         sodipodi:role="line"
         style="font-size:7.76111px;fill:#000000;fill-opacity:1;stroke:#ffffff;stroke-width:1;stroke-opacity:1"
         x="160.04778"
         y="9.4946842"
         id="tspan2">Top Bar</tspan></text><g
       id="g4239"
       transform="matrix(1.1544011,0,0,1.1544011,1.0227821,1.4342699)"><ellipse
         style="display:inline;opacity:1;fill:#f54e47;fill-opacity:1;stroke:none;stroke-width:1.05833;stroke-miterlimit:4;stroke-dasharray:none;stroke-opacity:1;paint-order:markers fill stroke"
         id="path315262"
         cx="8.6075535"
         cy="8.2511063"
         rx="7.33425"
         ry="7.3342419" /><path
         style="display:inline;fill:#292628;fill-opacity:1;stroke:none;stroke-width:0.264583px;stroke-linecap:butt;stroke-linejoin:miter;stroke-opacity:1"
         d="M 7.3552298,6.0264037 C 4.9355719,7.2945576 4.7061606,10.154821 4.2671849,12.862751 L 6.3491406,11.765423 C 11.841388,13.178452 12.8188,6.9988136 11.389211,5.9682176 L 11.693228,4.9060766 13.809101,4.3744041 11.194013,4.1217852 C 9.3444291,3.3505366 8.3999406,4.1772961 7.3552298,6.0264037 Z"
         id="path299997"
         sodipodi:nodetypes="cccccccc" /><path
         sodipodi:type="star"
         style="display:inline;opacity:1;fill:#f54e47;fill-opacity:1;stroke:none;stroke-width:4;stroke-miterlimit:4;stroke-dasharray:none;stroke-opacity:1;paint-order:markers fill stroke"
         id="path416060"
         inkscape:flatsided="false"
         sodipodi:sides="3"
         sodipodi:cx="81.176498"
         sodipodi:cy="6.814487"
         sodipodi:r1="16.135555"
         sodipodi:r2="6.3949895"
         sodipodi:arg1="1.4398858"
         sodipodi:arg2="2.4870834"
         inkscape:rounded="0"
         inkscape:randomized="0"
         transform="matrix(0.13636524,0,0,0.13636524,-1.0160006,6.8466718)"
         inkscape:transform-center-y="0.4360271"
         d="M 83.282784,22.811978 76.103054,10.707565 66.269122,0.6398388 80.341716,0.47421651 93.977589,-3.0083554 87.084725,9.2616798 Z" /></g><circle
       style="fill:none;fill-opacity:1;stroke:#000000;stroke-width:1;stroke-linecap:round;stroke-linejoin:round;stroke-opacity:1;paint-order:stroke fill markers"
       id="path3"
       r="8.3135233"
       cy="10.959356"
       cx="10.959352" /><path
       style="fill:none;fill-opacity:1;stroke:#000000;stroke-width:1;stroke-linecap:round;stroke-linejoin:round;stroke-opacity:1;paint-order:stroke fill markers"
       d="M 10.959351,19.272879 H 95.695879 A 8.3650213,8.3650213 135 0 0 104.0609,10.907858 V 2.645833"
       id="path4"
       inkscape:path-effect="#path-effect5"
       inkscape:original-d="M 10.959351,19.272879 H 104.0609 V 2.645833"
       sodipodi:nodetypes="ccc"
       transform="translate(-0.90495685)" /><path
       d="m 27.024483,7.213216 1.149091,1.149091 h 4.024395 v 6.343189 h -9.21334 v -7.49228 z"
       id="text5"
       style="font-size:7.7611px;line-height:1;font-family:'CaskaydiaCove Nerd Font';-inkscape-font-specification:'CaskaydiaCove Nerd Font';text-align:center;letter-spacing:0px;text-anchor:middle;fill:#000000;fill-opacity:1;stroke:#000000;stroke-width:1.35974;stroke-linecap:round;stroke-linejoin:round;paint-order:stroke fill markers"
       aria-label="" /><path
       d="m 47.776983,13.17511 0.725755,-0.736753 -0.951178,-0.956677 -0.731255,0.736752 v 0.351882 h 0.604797 v 0.604796 z m 2.765569,-4.5304749 q -0.04399,-0.032989 -0.104461,-0.032989 -0.06049,0 -0.104462,0.043985 L 48.13437,10.854892 q -0.04399,0.04399 -0.04399,0.104461 0,0.06049 0.03849,0.104461 0.04399,0.03299 0.104461,0.03299 0.06049,0 0.104462,-0.04399 l 2.199259,-2.1992598 q 0.04399,-0.043985 0.04399,-0.1044643 0,-0.06048 -0.03849,-0.1044642 z m 0.500331,3.7387409 v 1.187601 q 0,0.758745 -0.53332,1.286566 -0.527822,0.527823 -1.275571,0.527823 h -5.228739 q -0.753246,0 -1.281069,-0.527823 -0.527821,-0.527821 -0.527821,-1.286566 V 8.347735 q 0,-0.7477481 0.527821,-1.2810686 0.527823,-0.5333203 1.281069,-0.5333203 h 5.228739 q 0.395867,0 0.736752,0.153948 0.09346,0.043986 0.10996,0.1539482 0.0165,0.109963 -0.05499,0.1759408 l -0.307893,0.3078963 q -0.09346,0.098967 -0.203431,0.054982 -0.131955,-0.043985 -0.280406,-0.043985 h -5.228739 q -0.41786,0 -0.71476,0.2969001 -0.291402,0.2968999 -0.291402,0.7147592 v 5.2232403 q 0,0.41786 0.291402,0.71476 0.2969,0.296899 0.71476,0.296899 h 5.228739 q 0.417859,0 0.70926,-0.296899 0.296901,-0.2969 0.296901,-0.71476 v -0.791733 q 0,-0.07697 0.05499,-0.131955 l 0.401364,-0.406863 q 0.09896,-0.09896 0.219926,-0.04399 0.126456,0.05499 0.126456,0.186936 z m -0.604797,-4.6404372 1.81439,1.8033926 -4.222578,4.2225796 h -1.814389 v -1.803393 z m 2.79306,0.8247222 -0.577305,0.5828037 -1.808891,-1.814389 0.577306,-0.5718075 q 0.17594,-0.1759406 0.428854,-0.1759406 0.252916,0 0.423359,0.1759406 l 0.956677,0.956678 q 0.170442,0.1759406 0.170442,0.4288555 0,0.2529148 -0.170442,0.4178593 z"
       id="text6"
       style="font-size:7.7611px;line-height:1;font-family:'CaskaydiaCove Nerd Font';-inkscape-font-specification:'CaskaydiaCove Nerd Font';text-align:center;letter-spacing:0px;text-anchor:middle;stroke-width:1.45085;stroke-linecap:round;stroke-linejoin:round;paint-order:stroke fill markers"
       aria-label="" /><g
       id="g7"
       transform="translate(-0.12414864,1.2893642)"><path
         style="fill:#000000;fill-opacity:1;stroke:#000000;stroke-width:1;stroke-linecap:round;stroke-linejoin:round;stroke-opacity:1;paint-order:stroke fill markers"
         d="m 63.684776,6.0862275 h 9.252879"
         id="path7" /><path
         style="fill:#000000;fill-opacity:1;stroke:#000000;stroke-width:1;stroke-linecap:round;stroke-linejoin:round;stroke-opacity:1;paint-order:stroke fill markers"
         d="m 63.684776,10.627176 h 9.252879"
         id="path7-8" /><rect
         style="fill:#000000;fill-opacity:1;stroke:#f54e47;stroke-width:1;stroke-linecap:round;stroke-linejoin:round;stroke-opacity:1;paint-order:stroke fill markers"
         id="rect7-9"
         width="1.5692379"
         height="1.5692379"
         x="62.900158"
         y="9.8425579"
         rx="5.6157608"
         ry="1.5692379" /><path
         style="fill:#000000;fill-opacity:1;stroke:#000000;stroke-width:1;stroke-linecap:round;stroke-linejoin:round;stroke-opacity:1;paint-order:stroke fill markers"
         d="m 63.684776,12.89765 h 9.252879"
         id="path7-1" /><rect
         style="fill:#000000;fill-opacity:1;stroke:#f54e47;stroke-width:1;stroke-linecap:round;stroke-linejoin:round;stroke-opacity:1;paint-order:stroke fill markers"
         id="rect7-29"
         width="1.5692379"
         height="1.5692379"
         x="62.900158"
         y="12.113031"
         rx="5.6157608"
         ry="1.5692379" /><path
         d="m 71.450133,10.642894 q -0.409277,0 -0.689707,0.28043 -0.280431,0.280431 -0.280431,0.689708 0,0.409276 0.280431,0.689707 0.28043,0.28043 0.689707,0.28043 0.409277,0 0.689707,-0.28043 0.28043,-0.280431 0.28043,-0.689707 0,-0.409277 -0.28043,-0.689708 -0.28043,-0.28043 -0.689707,-0.28043 z m 0,2.592086 q -0.439594,0 -0.810974,-0.219797 -0.371381,-0.219796 -0.591178,-0.591177 -0.219797,-0.371381 -0.219797,-0.810974 0,-0.439594 0.219797,-0.810975 0.219797,-0.371381 0.591178,-0.591178 0.37138,-0.2197967 0.810974,-0.2197967 0.439593,0 0.810974,0.2197967 0.371381,0.219797 0.591178,0.591178 0.219797,0.371381 0.219797,0.810975 0,0.439593 -0.219797,0.810974 -0.219797,0.371381 -0.591178,0.591177 -0.371381,0.219797 -0.810974,0.219797 z m 0,-4.0472927 q -1.197514,0 -2.167651,0.674549 -0.970137,0.6745487 -1.394573,1.7507957 0.424436,1.076246 1.394573,1.750795 0.970137,0.674548 2.167651,0.674548 1.197513,0 2.167651,-0.674548 0.970137,-0.674549 1.394572,-1.750795 -0.424435,-1.076247 -1.394572,-1.7507957 -0.970138,-0.674549 -2.167651,-0.674549 z"
         id="text7"
         style="font-size:7.7611px;line-height:1;font-family:'CaskaydiaCove Nerd Font';-inkscape-font-specification:'CaskaydiaCove Nerd Font';text-align:center;letter-spacing:0px;text-anchor:middle;stroke:#f54e47;stroke-linecap:round;stroke-linejoin:round;paint-order:stroke fill markers"
         aria-label="󰈈" /><rect
         style="fill:#000000;fill-opacity:1;stroke:#f54e47;stroke-width:1;stroke-linecap:round;stroke-linejoin:round;stroke-opacity:1;paint-order:stroke fill markers"
         id="rect7"
         width="1.5692379"
         height="1.5692379"
         x="62.900158"
         y="5.3016086"
         rx="5.6157608"
         ry="1.5692379" /><path
         style="fill:#000000;fill-opacity:1;stroke:#000000;stroke-width:1;stroke-linecap:round;stroke-linejoin:round;stroke-opacity:1;paint-order:stroke fill markers"
         d="m 63.684776,8.356702 h 9.252879"
         id="path7-9" /><rect
         style="fill:#000000;fill-opacity:1;stroke:#f54e47;stroke-width:1;stroke-linecap:round;stroke-linejoin:round;stroke-opacity:1;paint-order:stroke fill markers"
         id="rect7-2"
         width="1.5692379"
         height="1.5692379"
         x="62.900158"
         y="7.572083"
         rx="5.6157608"
         ry="1.5692379"
         inkscape:label="rect7-2" /></g><path
       d="m 91.145924,6.619097 q -0.346406,0 -0.611304,0.2445217 l -3.484433,3.4844333 q -0.244522,0.244522 -0.244522,0.611304 0,0.366782 0.244522,0.611304 l 3.484433,3.484433 q 0.244522,0.244522 0.611304,0.244522 0.366782,0 0.611304,-0.244522 l 3.484433,-3.484433 q 0.244522,-0.244522 0.244522,-0.611304 0,-0.366782 -0.244522,-0.611304 L 91.757228,6.8636187 Q 91.49233,6.619097 91.145924,6.619097 Z m 0,2.1395645 q 0.57055,0.020376 0.927144,0.3667824 0.356594,0.3464055 0.376971,0.8354494 0.02038,0.4890427 -0.305652,0.9169567 -0.101882,0.101881 -0.326029,0.275086 -0.224144,0.173202 -0.31584,0.285276 -0.09169,0.11207 -0.112071,0.295462 -0.02038,0.101882 -0.02038,0.305652 h -0.652056 q 0,-0.346404 0.02038,-0.489042 0.02038,-0.244522 0.12226,-0.397348 0.101881,-0.152826 0.427914,-0.356594 l 0.18339,-0.142638 q 0.2649,-0.244521 0.315842,-0.519608 0.05095,-0.2750867 -0.122261,-0.4788553 -0.173202,-0.203768 -0.519608,-0.2445216 -0.264898,0 -0.458478,0.1935796 -0.19358,0.1935805 -0.19358,0.4788553 h -0.652058 q 0,-0.5501741 0.38716,-0.9373332 0.38716,-0.3871593 0.916956,-0.3871593 z m -0.427912,3.7289545 h 0.652056 v 0.652058 h -0.652056 z"
       id="text8"
       style="font-size:7.7611px;line-height:1;font-family:'CaskaydiaCove Nerd Font';-inkscape-font-specification:'CaskaydiaCove Nerd Font';text-align:center;letter-spacing:0px;text-anchor:middle;stroke:#f54e47;stroke-width:1.34426;stroke-linecap:round;stroke-linejoin:round;paint-order:stroke fill markers"
       aria-label="󰮥" /><rect
       style="fill:#000000;fill-opacity:1;stroke:#ffffff;stroke-width:3.8000001;stroke-linecap:round;stroke-linejoin:round;stroke-opacity:1;paint-order:stroke fill markers;stroke-dasharray:none;filter:url(#filter9)"
       id="rect8"
       width="45.484589"
       height="27.15609"
       x="201.28935"
       y="23.187393"
       rx="5.2139874"
       ry="5.2139874" /><text
       xml:space="preserve"
       style="font-size:7.7611px;line-height:1;font-family:'CaskaydiaCove Nerd Font';-inkscape-font-specification:'CaskaydiaCove Nerd Font';text-align:center;letter-spacing:0px;text-anchor:middle;fill:#ffffff;fill-opacity:1;stroke:none;stroke-width:1;stroke-linecap:round;stroke-linejoin:round;stroke-opacity:1;paint-order:stroke fill markers"
       x="224.18323"
       y="33.598976"
       id="text9"><tspan
         sodipodi:role="line"
         id="tspan8"
         style="fill:#ffffff;fill-opacity:1;stroke:none;stroke-width:1;stroke-opacity:1"
         x="224.18323"
         y="33.598976">Grid Pane</tspan><tspan
         sodipodi:role="line"
         style="fill:#ffffff;fill-opacity:1;stroke:none;stroke-width:1;stroke-opacity:1"
         x="224.18323"
         y="41.360077"
         id="tspan9">4:17</tspan></text></g></svg>
