<?xml version="1.0" encoding="UTF-8" standalone="no"?>
<!-- Created with Inkscape (http://www.inkscape.org/) -->

<svg
   width="1280"
   height="720"
   viewBox="0 0 338.66667 190.5"
   version="1.1"
   id="svg1"
   inkscape:version="1.3.2 (1:1.3.2+202311252150+091e20ef0f)"
   sodipodi:docname="Design-layout.svg"
   xml:space="preserve"
   xmlns:inkscape="http://www.inkscape.org/namespaces/inkscape"
   xmlns:sodipodi="http://sodipodi.sourceforge.net/DTD/sodipodi-0.dtd"
   xmlns="http://www.w3.org/2000/svg"
   xmlns:svg="http://www.w3.org/2000/svg"><sodipodi:namedview
     id="namedview1"
     pagecolor="#ffffff"
     bordercolor="#999999"
     borderopacity="1"
     inkscape:showpageshadow="2"
     inkscape:pageopacity="0"
     inkscape:pagecheckerboard="0"
     inkscape:deskcolor="#d1d1d1"
     inkscape:document-units="mm"
     inkscape:zoom="0.93005051"
     inkscape:cx="794.5805"
     inkscape:cy="-1.0752104"
     inkscape:window-width="1360"
     inkscape:window-height="768"
     inkscape:window-x="0"
     inkscape:window-y="0"
     inkscape:window-maximized="1"
     inkscape:current-layer="layer1" /><defs
     id="defs1"><inkscape:path-effect
       effect="fillet_chamfer"
       id="path-effect1"
       is_visible="true"
       lpeversion="1"
       nodesatellites_param="F,0,0,1,0,10.415684,0,1 @ F,0,0,1,0,0,0,1 @ F,0,0,1,0,9.7249212,0,1 @ F,0,0,1,0,10.256649,0,1"
       radius="0"
       unit="px"
       method="auto"
       mode="F"
       chamfer_steps="1"
       flexible="false"
       use_knot_distance="true"
       apply_no_radius="true"
       apply_with_radius="true"
       only_selected="false"
       hide_knots="false" /><inkscape:path-effect
       effect="fillet_chamfer"
       id="path-effect5"
       is_visible="true"
       lpeversion="1"
       nodesatellites_param="F,0,0,1,0,0,0,1 @ F,0,0,1,0,8.3650213,0,1 @ F,0,0,1,0,0,0,1"
       radius="0"
       unit="px"
       method="auto"
       mode="F"
       chamfer_steps="1"
       flexible="false"
       use_knot_distance="true"
       apply_no_radius="true"
       apply_with_radius="true"
       only_selected="false"
       hide_knots="false" /><inkscape:path-effect
       effect="fillet_chamfer"
       id="path-effect4"
       is_visible="true"
       lpeversion="1"
       nodesatellites_param="F,0,0,1,0,0,0,1 @ F,0,0,1,0,13.71712,0,1 @ F,0,0,1,0,0,0,1"
       radius="0"
       unit="px"
       method="auto"
       mode="F"
       chamfer_steps="1"
       flexible="false"
       use_knot_distance="true"
       apply_no_radius="true"
       apply_with_radius="true"
       only_selected="false"
       hide_knots="false" /><inkscape:path-effect
       effect="fillet_chamfer"
       id="path-effect5-7"
       is_visible="true"
       lpeversion="1"
       nodesatellites_param="F,0,0,1,0,0,0,1 @ F,0,0,1,0,8.3650213,0,1 @ F,0,0,1,0,0,0,1 @ F,0,0,1,0,0,0,1"
       radius="0"
       unit="px"
       method="auto"
       mode="F"
       chamfer_steps="1"
       flexible="false"
       use_knot_distance="true"
       apply_no_radius="true"
       apply_with_radius="true"
       only_selected="false"
       hide_knots="false" /><inkscape:path-effect
       effect="fillet_chamfer"
       id="path-effect5-7-2"
       is_visible="true"
       lpeversion="1"
       nodesatellites_param="F,0,0,1,0,0,0,1 @ F,0,0,1,0,8.3650213,0,1 @ F,0,0,1,0,0,0,1 @ F,0,0,1,0,0,0,1"
       radius="0"
       unit="px"
       method="auto"
       mode="F"
       chamfer_steps="1"
       flexible="false"
       use_knot_distance="true"
       apply_no_radius="true"
       apply_with_radius="true"
       only_selected="false"
       hide_knots="false" /><inkscape:path-effect
       effect="fillet_chamfer"
       id="path-effect5-7-2-0"
       is_visible="true"
       lpeversion="1"
       nodesatellites_param="F,0,0,1,0,0,0,1 @ F,0,0,1,0,8.3650213,0,1 @ F,0,0,1,0,0,0,1 @ F,0,0,1,0,0,0,1"
       radius="0"
       unit="px"
       method="auto"
       mode="F"
       chamfer_steps="1"
       flexible="false"
       use_knot_distance="true"
       apply_no_radius="true"
       apply_with_radius="true"
       only_selected="false"
       hide_knots="false" /><inkscape:path-effect
       effect="fillet_chamfer"
       id="path-effect5-7-2-0-6"
       is_visible="true"
       lpeversion="1"
       nodesatellites_param="F,0,0,1,0,0,0,1 @ F,0,0,1,0,8.3650213,0,1 @ F,0,0,1,0,0,0,1 @ F,0,0,1,0,0,0,1"
       radius="0"
       unit="px"
       method="auto"
       mode="F"
       chamfer_steps="1"
       flexible="false"
       use_knot_distance="true"
       apply_no_radius="true"
       apply_with_radius="true"
       only_selected="false"
       hide_knots="false" /><inkscape:path-effect
       effect="fillet_chamfer"
       id="path-effect5-7-2-0-6-9"
       is_visible="true"
       lpeversion="1"
       nodesatellites_param="F,0,0,1,0,0,0,1 @ F,0,0,1,0,8.3650213,0,1 @ F,0,0,1,0,0,0,1 @ F,0,0,1,0,0,0,1"
       radius="0"
       unit="px"
       method="auto"
       mode="F"
       chamfer_steps="1"
       flexible="false"
       use_knot_distance="true"
       apply_no_radius="true"
       apply_with_radius="true"
       only_selected="false"
       hide_knots="false" /><filter
       inkscape:collect="always"
       style="color-interpolation-filters:sRGB"
       id="filter9"
       x="-0.079728271"
       y="-0.13353939"
       width="1.1594565"
       height="1.2670788"><feGaussianBlur
         inkscape:collect="always"
         stdDeviation="0.71933649"
         id="feGaussianBlur9" /></filter></defs><g
     inkscape:label="Layer 1"
     inkscape:groupmode="layer"
     id="layer1"><rect
       style="fill:#ffffff;fill-opacity:1;stroke:none;stroke-width:3.8;stroke-linecap:round;stroke-linejoin:round;stroke-dasharray:none;stroke-opacity:1;paint-order:stroke fill markers"
       id="rect9"
       width="338.66666"
       height="190.5"
       x="0"
       y="0" /><rect
       style="fill:#000000;stroke:#7e7e7e;stroke-width:1;stroke-linecap:round;stroke-linejoin:round;stroke-dasharray:none;stroke-opacity:1;paint-order:stroke fill markers;fill-opacity:1"
       id="rect1"
       width="338.66663"
       height="154.83661"
       x="0"
       y="35.663391" /><rect
       style="fill:#000000;stroke:#7e7e7e;stroke-width:1;stroke-linecap:round;stroke-linejoin:round;stroke-dasharray:none;stroke-opacity:1;paint-order:stroke fill markers;fill-opacity:1"
       id="rect1-61"
       width="338.66663"
       height="35.663391"
       x="0"
       y="0" /><path
       id="rect1-61-2"
       style="fill:#ffffff;stroke:#000000;stroke-linecap:round;stroke-linejoin:round"
       d="M 10.415684,0 H 338.66663 v 24.350971 a 9.6945783,9.6945783 135.08952 0 1 -9.72487,9.694531 L 10.256599,33.049611 A 10.288751,10.288751 45.089524 0 1 0,22.76091 V 10.415684 A 10.415684,10.415684 135 0 1 10.415684,0 Z"
       inkscape:path-effect="#path-effect1"
       inkscape:original-d="M 0,0 H 338.66663 V 34.075892 L 0,33.017559 Z"
       sodipodi:nodetypes="ccccc" /><rect
       style="fill:#ffffff;stroke:#000000;stroke-width:1;stroke-linecap:round;stroke-linejoin:round;stroke-dasharray:none;stroke-opacity:1;paint-order:stroke fill markers;fill-opacity:1"
       id="rect1-6"
       width="333.375"
       height="149.54494"
       x="2.645813"
       y="38.309227"
       ry="7.663393" /><text
       xml:space="preserve"
       style="font-size:7.76111px;line-height:1;font-family:'CaskaydiaCove Nerd Font';-inkscape-font-specification:'CaskaydiaCove Nerd Font';text-align:center;letter-spacing:0px;text-anchor:middle;fill:#000000;fill-opacity:1;stroke:#ffffff;stroke-width:1;stroke-linecap:round;stroke-linejoin:round;stroke-opacity:1;paint-order:stroke fill markers"
       x="160.04778"
       y="9.4946842"
       id="text1"><tspan
         sodipodi:role="line"
         style="font-size:7.76111px;fill:#000000;fill-opacity:1;stroke:#ffffff;stroke-width:1;stroke-opacity:1"
         x="160.04778"
         y="9.4946842"
         id="tspan2">Top Bar</tspan></text><g
       id="g1"
       transform="translate(-4.1060619,-13.444182)"><path
         style="fill:#f54e47;fill-opacity:1;stroke:#000000;stroke-width:1;stroke-linecap:round;stroke-linejoin:round;stroke-opacity:1;paint-order:stroke fill markers"
         d="m 10.959351,19.272879 h 18.902721 a 8.3650213,8.3650213 135 0 0 8.365021,-8.365021 V 2.645833 H 10.959352"
         id="path4-3-1-3-6-7"
         inkscape:path-effect="#path-effect5-7-2-0-6-9"
         inkscape:original-d="M 10.959351,19.272879 H 38.227093 V 2.645833 H 10.959352"
         sodipodi:nodetypes="cccc"
         transform="translate(66.889087,11.29835)" /><path
         style="fill:#f54e47;fill-opacity:1;stroke:#000000;stroke-width:1;stroke-linecap:round;stroke-linejoin:round;stroke-opacity:1;paint-order:stroke fill markers"
         d="m 10.959351,19.272879 h 18.902721 a 8.3650213,8.3650213 135 0 0 8.365021,-8.365021 V 2.645833 H 10.959352"
         id="path4-3-1-3-6"
         inkscape:path-effect="#path-effect5-7-2-0-6"
         inkscape:original-d="M 10.959351,19.272879 H 38.227093 V 2.645833 H 10.959352"
         sodipodi:nodetypes="cccc"
         transform="translate(44.902471,11.29835)" /><path
         style="fill:#f54e47;fill-opacity:1;stroke:#000000;stroke-width:1;stroke-linecap:round;stroke-linejoin:round;stroke-opacity:1;paint-order:stroke fill markers"
         d="m 10.959351,19.272879 h 18.902721 a 8.3650213,8.3650213 135 0 0 8.365021,-8.365021 V 2.645833 H 10.959352"
         id="path4-3-1-3"
         inkscape:path-effect="#path-effect5-7-2-0"
         inkscape:original-d="M 10.959351,19.272879 H 38.227093 V 2.645833 H 10.959352"
         sodipodi:nodetypes="cccc"
         transform="translate(22.222197,11.29835)" /><path
         style="fill:#f54e47;fill-opacity:1;stroke:#000000;stroke-width:1;stroke-linecap:round;stroke-linejoin:round;stroke-opacity:1;paint-order:stroke fill markers"
         d="m 10.959351,19.272879 h 18.902721 a 8.3650213,8.3650213 135 0 0 8.365021,-8.365021 V 2.645833 H 10.959352"
         id="path4-3-1"
         inkscape:path-effect="#path-effect5-7-2"
         inkscape:original-d="M 10.959351,19.272879 H 38.227093 V 2.645833 H 10.959352"
         sodipodi:nodetypes="cccc"
         transform="translate(1.9602336,11.29835)" /><g
         id="g4239"
         transform="matrix(1.1544011,0,0,1.1544011,2.9830157,12.73262)"><ellipse
           style="display:inline;opacity:1;fill:#f54e47;fill-opacity:1;stroke:none;stroke-width:1.05833;stroke-miterlimit:4;stroke-dasharray:none;stroke-opacity:1;paint-order:markers fill stroke"
           id="path315262"
           cx="8.6075535"
           cy="8.2511063"
           rx="7.33425"
           ry="7.3342419" /><path
           style="display:inline;fill:#292628;fill-opacity:1;stroke:none;stroke-width:0.264583px;stroke-linecap:butt;stroke-linejoin:miter;stroke-opacity:1"
           d="M 7.3552298,6.0264037 C 4.9355719,7.2945576 4.7061606,10.154821 4.2671849,12.862751 L 6.3491406,11.765423 C 11.841388,13.178452 12.8188,6.9988136 11.389211,5.9682176 L 11.693228,4.9060766 13.809101,4.3744041 11.194013,4.1217852 C 9.3444291,3.3505366 8.3999406,4.1772961 7.3552298,6.0264037 Z"
           id="path299997"
           sodipodi:nodetypes="cccccccc" /><path
           sodipodi:type="star"
           style="display:inline;opacity:1;fill:#f54e47;fill-opacity:1;stroke:none;stroke-width:4;stroke-miterlimit:4;stroke-dasharray:none;stroke-opacity:1;paint-order:markers fill stroke"
           id="path416060"
           inkscape:flatsided="false"
           sodipodi:sides="3"
           sodipodi:cx="81.176498"
           sodipodi:cy="6.814487"
           sodipodi:r1="16.135555"
           sodipodi:r2="6.3949895"
           sodipodi:arg1="1.4398858"
           sodipodi:arg2="2.4870834"
           inkscape:rounded="0"
           inkscape:randomized="0"
           transform="matrix(0.13636524,0,0,0.13636524,-1.0160006,6.8466718)"
           inkscape:transform-center-y="0.4360271"
           d="M 83.282784,22.811978 76.103054,10.707565 66.269122,0.6398388 80.341716,0.47421651 93.977589,-3.0083554 87.084725,9.2616798 Z" /></g><circle
         style="fill:none;fill-opacity:1;stroke:#000000;stroke-width:1;stroke-linecap:round;stroke-linejoin:round;stroke-opacity:1;paint-order:stroke fill markers"
         id="path3"
         r="8.3135233"
         cy="22.257706"
         cx="12.919585" /><path
         style="fill:none;fill-opacity:1;stroke:#000000;stroke-width:1;stroke-linecap:round;stroke-linejoin:round;stroke-opacity:1;paint-order:stroke fill markers"
         d="M 10.959351,19.272879 H 95.695879 A 8.3650213,8.3650213 135 0 0 104.0609,10.907858 V 2.645833"
         id="path4"
         inkscape:path-effect="#path-effect5"
         inkscape:original-d="M 10.959351,19.272879 H 104.0609 V 2.645833"
         sodipodi:nodetypes="ccc"
         transform="translate(1.0552768,11.29835)" /><path
         d="m 28.984717,18.511566 1.149091,1.149091 h 4.024395 v 6.343189 h -9.21334 v -7.49228 z"
         id="text5"
         style="font-size:7.7611px;line-height:1;font-family:'CaskaydiaCove Nerd Font';-inkscape-font-specification:'CaskaydiaCove Nerd Font';text-align:center;letter-spacing:0px;text-anchor:middle;fill:#000000;fill-opacity:1;stroke:#000000;stroke-width:1.35974;stroke-linecap:round;stroke-linejoin:round;paint-order:stroke fill markers"
         aria-label="" /><path
         d="m 49.737217,24.47346 0.725755,-0.736753 -0.951178,-0.956677 -0.731255,0.736752 v 0.351882 h 0.604797 v 0.604796 z m 2.765569,-4.530475 q -0.04399,-0.03299 -0.104461,-0.03299 -0.06049,0 -0.104462,0.04398 l -2.199259,2.199261 q -0.04399,0.04399 -0.04399,0.104461 0,0.06049 0.03849,0.104461 0.04399,0.03299 0.104461,0.03299 0.06049,0 0.104462,-0.04399 l 2.199259,-2.19926 q 0.04399,-0.04398 0.04399,-0.104464 0,-0.06048 -0.03849,-0.104464 z m 0.500331,3.738741 v 1.187601 q 0,0.758745 -0.53332,1.286566 -0.527822,0.527823 -1.275571,0.527823 h -5.228739 q -0.753246,0 -1.281069,-0.527823 -0.527821,-0.527821 -0.527821,-1.286566 v -5.223242 q 0,-0.747748 0.527821,-1.281069 0.527823,-0.53332 1.281069,-0.53332 h 5.228739 q 0.395867,0 0.736752,0.153948 0.09346,0.04399 0.10996,0.153948 0.0165,0.109963 -0.05499,0.175941 l -0.307893,0.307896 q -0.09346,0.09897 -0.203431,0.05498 -0.131955,-0.04399 -0.280406,-0.04399 h -5.228739 q -0.41786,0 -0.71476,0.296901 -0.291402,0.296899 -0.291402,0.714759 v 5.22324 q 0,0.41786 0.291402,0.71476 0.2969,0.296899 0.71476,0.296899 h 5.228739 q 0.417859,0 0.70926,-0.296899 0.296901,-0.2969 0.296901,-0.71476 v -0.791733 q 0,-0.07697 0.05499,-0.131955 l 0.401364,-0.406863 q 0.09896,-0.09896 0.219926,-0.04399 0.126456,0.05499 0.126456,0.186936 z m -0.604797,-4.640437 1.81439,1.803392 -4.222578,4.22258 h -1.814389 v -1.803393 z m 2.79306,0.824722 -0.577305,0.582804 -1.808891,-1.814389 0.577306,-0.571808 q 0.17594,-0.17594 0.428854,-0.17594 0.252916,0 0.423359,0.17594 l 0.956677,0.956678 q 0.170442,0.175941 0.170442,0.428856 0,0.252914 -0.170442,0.417859 z"
         id="text6"
         style="font-size:7.7611px;line-height:1;font-family:'CaskaydiaCove Nerd Font';-inkscape-font-specification:'CaskaydiaCove Nerd Font';text-align:center;letter-spacing:0px;text-anchor:middle;stroke-width:1.45085;stroke-linecap:round;stroke-linejoin:round;paint-order:stroke fill markers"
         aria-label="" /><g
         id="g7"
         transform="translate(1.836085,12.587714)"><path
           style="fill:#000000;fill-opacity:1;stroke:#000000;stroke-width:1;stroke-linecap:round;stroke-linejoin:round;stroke-opacity:1;paint-order:stroke fill markers"
           d="m 63.684776,6.0862275 h 9.252879"
           id="path7" /><path
           style="fill:#000000;fill-opacity:1;stroke:#000000;stroke-width:1;stroke-linecap:round;stroke-linejoin:round;stroke-opacity:1;paint-order:stroke fill markers"
           d="m 63.684776,10.627176 h 9.252879"
           id="path7-8" /><rect
           style="fill:#000000;fill-opacity:1;stroke:#f54e47;stroke-width:1;stroke-linecap:round;stroke-linejoin:round;stroke-opacity:1;paint-order:stroke fill markers"
           id="rect7-9"
           width="1.5692379"
           height="1.5692379"
           x="62.900158"
           y="9.8425579"
           rx="5.6157608"
           ry="1.5692379" /><path
           style="fill:#000000;fill-opacity:1;stroke:#000000;stroke-width:1;stroke-linecap:round;stroke-linejoin:round;stroke-opacity:1;paint-order:stroke fill markers"
           d="m 63.684776,12.89765 h 9.252879"
           id="path7-1" /><rect
           style="fill:#000000;fill-opacity:1;stroke:#f54e47;stroke-width:1;stroke-linecap:round;stroke-linejoin:round;stroke-opacity:1;paint-order:stroke fill markers"
           id="rect7-29"
           width="1.5692379"
           height="1.5692379"
           x="62.900158"
           y="12.113031"
           rx="5.6157608"
           ry="1.5692379" /><path
           d="m 71.450133,10.642894 q -0.409277,0 -0.689707,0.28043 -0.280431,0.280431 -0.280431,0.689708 0,0.409276 0.280431,0.689707 0.28043,0.28043 0.689707,0.28043 0.409277,0 0.689707,-0.28043 0.28043,-0.280431 0.28043,-0.689707 0,-0.409277 -0.28043,-0.689708 -0.28043,-0.28043 -0.689707,-0.28043 z m 0,2.592086 q -0.439594,0 -0.810974,-0.219797 -0.371381,-0.219796 -0.591178,-0.591177 -0.219797,-0.371381 -0.219797,-0.810974 0,-0.439594 0.219797,-0.810975 0.219797,-0.371381 0.591178,-0.591178 0.37138,-0.2197967 0.810974,-0.2197967 0.439593,0 0.810974,0.2197967 0.371381,0.219797 0.591178,0.591178 0.219797,0.371381 0.219797,0.810975 0,0.439593 -0.219797,0.810974 -0.219797,0.371381 -0.591178,0.591177 -0.371381,0.219797 -0.810974,0.219797 z m 0,-4.0472927 q -1.197514,0 -2.167651,0.674549 -0.970137,0.6745487 -1.394573,1.7507957 0.424436,1.076246 1.394573,1.750795 0.970137,0.674548 2.167651,0.674548 1.197513,0 2.167651,-0.674548 0.970137,-0.674549 1.394572,-1.750795 -0.424435,-1.076247 -1.394572,-1.7507957 -0.970138,-0.674549 -2.167651,-0.674549 z"
           id="text7"
           style="font-size:7.7611px;line-height:1;font-family:'CaskaydiaCove Nerd Font';-inkscape-font-specification:'CaskaydiaCove Nerd Font';text-align:center;letter-spacing:0px;text-anchor:middle;stroke:#f54e47;stroke-linecap:round;stroke-linejoin:round;paint-order:stroke fill markers"
           aria-label="󰈈" /><rect
           style="fill:#000000;fill-opacity:1;stroke:#f54e47;stroke-width:1;stroke-linecap:round;stroke-linejoin:round;stroke-opacity:1;paint-order:stroke fill markers"
           id="rect7"
           width="1.5692379"
           height="1.5692379"
           x="62.900158"
           y="5.3016086"
           rx="5.6157608"
           ry="1.5692379" /><path
           style="fill:#000000;fill-opacity:1;stroke:#000000;stroke-width:1;stroke-linecap:round;stroke-linejoin:round;stroke-opacity:1;paint-order:stroke fill markers"
           d="m 63.684776,8.356702 h 9.252879"
           id="path7-9" /><rect
           style="fill:#000000;fill-opacity:1;stroke:#f54e47;stroke-width:1;stroke-linecap:round;stroke-linejoin:round;stroke-opacity:1;paint-order:stroke fill markers"
           id="rect7-2"
           width="1.5692379"
           height="1.5692379"
           x="62.900158"
           y="7.572083"
           rx="5.6157608"
           ry="1.5692379"
           inkscape:label="rect7-2" /></g><path
         d="m 93.106158,17.917447 q -0.346406,0 -0.611304,0.244522 l -3.484433,3.484433 q -0.244522,0.244522 -0.244522,0.611304 0,0.366782 0.244522,0.611304 l 3.484433,3.484433 q 0.244522,0.244522 0.611304,0.244522 0.366782,0 0.611304,-0.244522 l 3.484433,-3.484433 q 0.244522,-0.244522 0.244522,-0.611304 0,-0.366782 -0.244522,-0.611304 l -3.484433,-3.484433 q -0.264898,-0.244522 -0.611304,-0.244522 z m 0,2.139564 q 0.57055,0.02038 0.927144,0.366783 0.356594,0.346405 0.376971,0.835449 0.02038,0.489043 -0.305652,0.916957 -0.101882,0.101881 -0.326029,0.275086 -0.224144,0.173202 -0.31584,0.285276 -0.09169,0.11207 -0.112071,0.295462 -0.02038,0.101882 -0.02038,0.305652 h -0.652056 q 0,-0.346404 0.02038,-0.489042 0.02038,-0.244522 0.12226,-0.397348 0.101881,-0.152826 0.427914,-0.356594 l 0.18339,-0.142638 q 0.2649,-0.244521 0.315842,-0.519608 0.05095,-0.275087 -0.122261,-0.478855 -0.173202,-0.203768 -0.519608,-0.244522 -0.264898,0 -0.458478,0.19358 -0.19358,0.19358 -0.19358,0.478855 h -0.652058 q 0,-0.550174 0.38716,-0.937333 0.38716,-0.387159 0.916956,-0.387159 z m -0.427912,3.728955 h 0.652056 v 0.652058 h -0.652056 z"
         id="text8"
         style="font-size:7.7611px;line-height:1;font-family:'CaskaydiaCove Nerd Font';-inkscape-font-specification:'CaskaydiaCove Nerd Font';text-align:center;letter-spacing:0px;text-anchor:middle;stroke:#f54e47;stroke-width:1.34426;stroke-linecap:round;stroke-linejoin:round;paint-order:stroke fill markers"
         aria-label="󰮥" /></g><rect
       style="fill:#000000;fill-opacity:1;stroke:#ffffff;stroke-width:3.8;stroke-linecap:round;stroke-linejoin:round;stroke-dasharray:none;stroke-opacity:1;paint-order:stroke fill markers;filter:url(#filter9)"
       id="rect8"
       width="45.484589"
       height="27.15609"
       x="172.38773"
       y="21.585346"
       rx="5.2139874"
       ry="5.2139874" /><text
       xml:space="preserve"
       style="font-size:7.7611px;line-height:1;font-family:'CaskaydiaCove Nerd Font';-inkscape-font-specification:'CaskaydiaCove Nerd Font';text-align:center;letter-spacing:0px;text-anchor:middle;fill:#ffffff;fill-opacity:1;stroke:none;stroke-width:1;stroke-linecap:round;stroke-linejoin:round;stroke-opacity:1;paint-order:stroke fill markers"
       x="195.2816"
       y="31.996929"
       id="text9"><tspan
         sodipodi:role="line"
         id="tspan8"
         style="fill:#ffffff;fill-opacity:1;stroke:none;stroke-width:1;stroke-opacity:1"
         x="195.2816"
         y="31.996929">Grid Pane</tspan><tspan
         sodipodi:role="line"
         style="fill:#ffffff;fill-opacity:1;stroke:none;stroke-width:1;stroke-opacity:1"
         x="195.2816"
         y="39.75803"
         id="tspan9">4:17</tspan></text><rect
       style="fill:#1e002c;fill-opacity:1;stroke-width:0.5;stroke-linecap:round;stroke-linejoin:round;paint-order:normal;stroke:#000000;stroke-opacity:1;stroke-dasharray:none"
       id="rect2"
       width="51.160221"
       height="25.580111"
       x="236.25961"
       y="4.2327199"
       ry="5.358799" /><path
       style="fill:none;fill-opacity:1;stroke:#ff0000;stroke-width:0.499999;stroke-linecap:round;stroke-linejoin:round;stroke-dasharray:none;stroke-opacity:1;paint-order:normal"
       d="m 236.25961,17.022775 c 2.04,0.152767 3.92814,-0.562731 5.8355,-1.200668 4.69003,-1.568633 3.01995,-1.038785 7.53837,-2.899728 0.94676,-0.38993 1.90064,-0.762346 2.85204,-1.140817 0.1429,-0.05684 0.29457,-0.236448 0.43081,-0.165115 0.0665,0.03481 0.0151,1.339365 -0.13004,1.76756 -0.12493,0.368662 -0.67329,1.211757 -0.79476,1.703887 -0.0699,0.283145 -0.0483,0.583643 -0.11722,0.867038 -0.0137,0.05656 -0.14631,0.17701 -0.12347,0.123472 0.35594,-0.834469 3.42249,-2.598631 4.18369,-2.961593 0.094,-0.04483 0.89695,0.0049 0.93862,0.09932 0.28678,0.649584 0.27681,3.704502 0.90616,4.037878 0.0837,0.04435 0.76568,0.01572 0.80265,0 0.1309,-0.05566 0.17635,-0.234592 0.30174,-0.301739 0.65774,-0.352214 1.65667,-0.662747 2.36439,-0.905946 0.4935,-0.169585 0.36287,0.585928 0.50008,0.798392 0.15978,0.247411 0.58904,0 0.88356,0 0.47254,0 0.94591,0.02784 1.41764,0 0.46184,-0.02726 2.36445,-0.585925 2.73495,-0.400671 0.50117,0.250586 -0.65336,2.876189 1.0378,3.364394 0.61532,0.17762 0.70893,-0.06326 1.10638,-0.30174 0.17666,-0.106 0.41654,-0.03094 0.60936,-0.10352 0.4208,-0.158382 0.90938,-0.467309 1.34157,-0.565734 0.1864,-0.04245 0.38328,0.01853 0.57357,0 1.29781,-0.126388 2.57252,-0.127048 3.88339,-0.127048 0.39378,0 1.08482,0.125756 1.46672,0 0.11988,-0.03948 0.65884,-0.479504 0.70956,-0.504741 0.12737,-0.06337 0.28464,-0.04438 0.41402,-0.103501 0.5443,-0.24871 1.12519,-0.626823 1.60515,-0.985918 0.21098,-0.157865 0.30586,-0.441345 0.49929,-0.602847 0.3042,-0.253941 1.16602,-0.453096 1.42288,-0.709955 0.14893,-0.14893 0.0765,-0.389558 0.30173,-0.502899 0.21577,-0.108564 0.58153,-0.247221 0.7946,-0.300484 0.13009,-0.03253 0.28236,0.05997 0.40232,0 0.0848,-0.04241 0.11645,-0.158539 0.20114,-0.20116 0.0687,-0.03455 0.18047,0.05016 0.24349,0 0.39119,-0.311248 -0.24929,-0.101995 0.29935,-0.29402 0.16307,-0.05707 0.34552,0 0.51827,0 0.88014,0 0.92353,0.106174 1.63867,0.474221 0.18439,0.0949 0.50956,0.0079 0.678,0.09483 0.0837,0.04323 0.118,0.153268 0.19989,0.199901 0.2015,0.114753 0.45955,-0.06299 0.68836,-0.10058"
       id="path8" /><path
       style="fill:none;fill-opacity:1;stroke:#00fa51;stroke-width:0.499999;stroke-linecap:round;stroke-linejoin:round;stroke-dasharray:none;stroke-opacity:1;paint-order:normal"
       d="m 236.25961,17.022775 c 2.63508,-1.64088 5.09288,-3.607868 7.86531,-4.994742 0.52465,-0.262448 1.01714,-0.602144 1.57343,-0.788355 0.48334,-0.161791 4.1272,-0.661218 4.20792,-0.666421 1.96117,-0.126433 4.70724,-0.297448 6.48312,0.818794 1.52658,0.959541 3.25061,3.274957 4.82507,3.76656 1.51986,0.474552 2.60056,-1.209776 3.53217,-2.031272 0.14505,-0.12789 0.33801,-0.200243 0.46665,-0.34462 0.25267,-0.28362 0.28524,-1.275129 0.7031,-1.40898 0.40865,-0.130902 2.12828,1.14791 2.54302,1.349095 0.78102,0.378849 2.46718,0.323257 3.21214,0.06004 0.2049,-0.0724 0.31131,-0.568131 0.48422,-0.436498 1.29728,0.98761 1.46354,2.385597 3.25617,2.803998 0.23276,0.05432 0.4794,0.03845 0.70967,0.102449 0.19584,0.05443 0.3601,0.207099 0.56073,0.239709 0.97237,0.158041 1.84113,-0.148572 2.80186,0.23408 0.0308,0.01225 -0.0148,0.06971 0,0.09932 0.0872,0.17434 0.18245,0.346535 0.30048,0.501644 0.18876,0.248025 0.4031,0.486445 0.66117,0.661175 0.11449,0.07749 0.30321,0.0042 0.40233,0.10058 0.3751,0.364583 -0.0238,0.05399 0.0951,0.285281 0.15904,0.309384 1.4461,1.217443 1.6968,1.301009 0.36155,0.120515 2.82162,0.220177 3.22916,0.110593 0.39666,-0.10666 0.74033,-0.438594 1.02589,-0.724161 0.29742,-0.297413 0.37793,-0.661998 0.60349,-1.005798 0.0557,-0.08492 0.23008,-0.309057 0.1351,-0.27308 -0.0747,0.02831 -0.14259,0.07218 -0.21387,0.108268"
       id="path9" /></g></svg>
